<svg width="48" height="48" viewBox="0 0 48 48" fill="none" xmlns="http://www.w3.org/2000/svg">
  <!-- Simplified favicon - just the pouch shape with P -->

  <!-- Background -->
  <rect width="48" height="48" rx="10" fill="#0D1411"/>

  <!-- Pouch body simplified -->
  <path
    d="M12 17
       C12 14, 16 12, 20 12
       L28 12
       C32 12, 36 14, 36 17
       L36 19
       L38 21
       C41 24, 42 28, 42 32
       L42 33
       C42 38, 38 42, 33 42
       L15 42
       C10 42, 6 38, 6 33
       L6 32
       C6 28, 7 24, 10 21
       L12 19
       Z"
    fill="#2E3B35"
  />

  <!-- Pouch inner depth -->
  <path
    d="M14 18
       C14 16, 17 14, 21 14
       L27 14
       C31 14, 34 16, 34 18
       L34 20
       L36 22
       C39 25, 40 28, 40 31
       L40 32
       C40 36, 37 40, 32 40
       L16 40
       C11 40, 8 36, 8 32
       L8 31
       C8 28, 9 25, 12 22
       L14 20
       Z"
    fill="#384A42"
  />

  <!-- Drawstring -->
  <path
    d="M14 15 Q19 18 24 18 Q29 18 34 15"
    fill="none"
    stroke="#B8F25B"
    stroke-width="2.5"
    stroke-linecap="round"
  />

  <!-- Drawstring balls -->
  <circle cx="10" cy="22" r="3.5" fill="#B8F25B"/>
  <circle cx="38" cy="22" r="3.5" fill="#B8F25B"/>

  <!-- Center P -->
  <circle cx="24" cy="30" r="9" fill="#0D1411" stroke="#B8F25B" stroke-width="1.5"/>
</svg>
